HIERARCHY
ROOT Hips
{
    OFFSET   0.000000   0.000000   0.000000
    CHANNELS 6 Xposition Yposition Zposition Zrotation Xrotation Yrotation
    JOINT Chest
    {
        OFFSET   0.000000   8.007230   0.000000
        CHANNELS 3 Zrotation Xrotation Yrotation
        JOINT Chest2
        {
            OFFSET   0.000000  22.077100   0.000000
            CHANNELS 3 Zrotation Xrotation Yrotation
            JOINT Neck
            {
                OFFSET   0.000000  23.254800   0.000000
                CHANNELS 3 Zrotation Xrotation Yrotation
                JOINT Head
                {
                    OFFSET   0.000010  14.370000   1.956600
                    CHANNELS 3 Zrotation Xrotation Yrotation
                    End Site
                    {
                        OFFSET   0.000000  19.566000   0.000000
                    }
                }
            }
            JOINT LeftCollar
            {
                OFFSET   3.911900  19.017000  -0.467062
                CHANNELS 3 Zrotation Xrotation Yrotation
                JOINT LeftShoulder
                {
                    OFFSET  10.383700   0.000000   0.000000
                    CHANNELS 3 Zrotation Xrotation Yrotation
                    JOINT LeftElbow
                    {
                        OFFSET  26.662100   0.001193   0.000835
                        CHANNELS 3 Zrotation Xrotation Yrotation
                        JOINT LeftWrist
                        {
                            OFFSET  28.869000  -0.000058  -0.000075
                            CHANNELS 3 Zrotation Xrotation Yrotation
                            JOINT LeftFinger0
                            {
                                OFFSET   2.044660  -2.323460   3.252850
                                CHANNELS 3 Zrotation Xrotation Yrotation
                                JOINT LeftFinger01
                                {
                                    OFFSET   3.088130   0.000000   0.000000
                                    CHANNELS 3 Zrotation Xrotation Yrotation
                                    JOINT LeftFinger02
                                    {
                                        OFFSET   2.639450   0.000000   0.000000
                                        CHANNELS 3 Zrotation Xrotation Yrotation
                                        End Site
                                        {
                                            OFFSET   2.582190   0.000000   0.000000
                                        }
                                    }
                                }
                            }
                            JOINT LeftFinger1
                            {
                                OFFSET   8.364480   0.000000   3.252850
                                CHANNELS 3 Zrotation Xrotation Yrotation
                                JOINT LeftFinger11
                                {
                                    OFFSET   4.646920   0.000000   0.000000
                                    CHANNELS 3 Zrotation Xrotation Yrotation
                                    JOINT LeftFinger12
                                    {
                                        OFFSET   2.323460   0.000000   0.000000
                                        CHANNELS 3 Zrotation Xrotation Yrotation
                                        End Site
                                        {
                                            OFFSET   2.273050   0.000000   0.000000
                                        }
                                    }
                                }
                            }
                            JOINT LeftFinger2
                            {
                                OFFSET   8.364490   0.000016   1.078090
                                CHANNELS 3 Zrotation Xrotation Yrotation
                                JOINT LeftFinger21
                                {
                                    OFFSET   5.111620   0.000000   0.000000
                                    CHANNELS 3 Zrotation Xrotation Yrotation
                                    JOINT LeftFinger22
                                    {
                                        OFFSET   2.788150   0.000012   0.000000
                                        CHANNELS 3 Zrotation Xrotation Yrotation
                                        End Site
                                        {
                                            OFFSET   2.727660   0.000000   0.000000
                                        }
                                    }
                                }
                            }
                            JOINT LeftFinger3
                            {
                                OFFSET   7.899780   0.000014  -1.078090
                                CHANNELS 3 Zrotation Xrotation Yrotation
                                JOINT LeftFinger31
                                {
                                    OFFSET   4.646930   0.000000   0.000000
                                    CHANNELS 3 Zrotation Xrotation Yrotation
                                    JOINT LeftFinger32
                                    {
                                        OFFSET   2.323470   0.000000   0.000000
                                        CHANNELS 3 Zrotation Xrotation Yrotation
                                        End Site
                                        {
                                            OFFSET   2.273050   0.000000   0.000000
                                        }
                                    }
                                }
                            }
                            JOINT LeftFinger4
                            {
                                OFFSET   7.435090   0.000000  -3.252850
                                CHANNELS 3 Zrotation Xrotation Yrotation
                                JOINT LeftFinger41
                                {
                                    OFFSET   3.717550   0.000000   0.000000
                                    CHANNELS 3 Zrotation Xrotation Yrotation
                                    JOINT LeftFinger42
                                    {
                                        OFFSET   1.858770   0.000000   0.000000
                                        CHANNELS 3 Zrotation Xrotation Yrotation
                                        End Site
                                        {
                                            OFFSET   1.818440   0.000000   0.000000
                                        }
                                    }
                                }
                            }
                        }
                    }
                }
            }
            JOINT RightCollar
            {
                OFFSET  -3.911900  19.017000  -0.467063
                CHANNELS 3 Zrotation Xrotation Yrotation
                JOINT RightShoulder
                {
                    OFFSET -10.383700   0.000023   0.000000
                    CHANNELS 3 Zrotation Xrotation Yrotation
                    JOINT RightElbow
                    {
                        OFFSET -26.662100   0.001246   0.001011
                        CHANNELS 3 Zrotation Xrotation Yrotation
                        JOINT RightWrist
                        {
                            OFFSET -28.869000  -0.000026  -0.000078
                            CHANNELS 3 Zrotation Xrotation Yrotation
                            JOINT RightFinger0
                            {
                                OFFSET  -2.044660  -2.323490   3.252850
                                CHANNELS 3 Zrotation Xrotation Yrotation
                                JOINT RightFinger01
                                {
                                    OFFSET  -3.088130   0.000000   0.000000
                                    CHANNELS 3 Zrotation Xrotation Yrotation
                                    JOINT RightFinger02
                                    {
                                        OFFSET  -2.639460   0.000000   0.000000
                                        CHANNELS 3 Zrotation Xrotation Yrotation
                                        End Site
                                        {
                                            OFFSET  -2.582190   0.000000   0.000000
                                        }
                                    }
                                }
                            }
                            JOINT RightFinger1
                            {
                                OFFSET  -8.364480   0.000000   3.252850
                                CHANNELS 3 Zrotation Xrotation Yrotation
                                JOINT RightFinger11
                                {
                                    OFFSET  -4.646920   0.000000   0.000000
                                    CHANNELS 3 Zrotation Xrotation Yrotation
                                    JOINT RightFinger12
                                    {
                                        OFFSET  -2.323470   0.000000   0.000000
                                        CHANNELS 3 Zrotation Xrotation Yrotation
                                        End Site
                                        {
                                            OFFSET  -2.273050   0.000000   0.000000
                                        }
                                    }
                                }
                            }
                            JOINT RightFinger2
                            {
                                OFFSET  -8.364480   0.000000   1.078090
                                CHANNELS 3 Zrotation Xrotation Yrotation
                                JOINT RightFinger21
                                {
                                    OFFSET  -5.111620   0.000000   0.000000
                                    CHANNELS 3 Zrotation Xrotation Yrotation
                                    JOINT RightFinger22
                                    {
                                        OFFSET  -2.788160   0.000000   0.000000
                                        CHANNELS 3 Zrotation Xrotation Yrotation
                                        End Site
                                        {
                                            OFFSET  -2.727660   0.000000   0.000000
                                        }
                                    }
                                }
                            }
                            JOINT RightFinger3
                            {
                                OFFSET  -7.899780   0.000000  -1.078090
                                CHANNELS 3 Zrotation Xrotation Yrotation
                                JOINT RightFinger31
                                {
                                    OFFSET  -4.646930   0.000000   0.000000
                                    CHANNELS 3 Zrotation Xrotation Yrotation
                                    JOINT RightFinger32
                                    {
                                        OFFSET  -2.323470   0.000000   0.000000
                                        CHANNELS 3 Zrotation Xrotation Yrotation
                                        End Site
                                        {
                                            OFFSET  -2.273050   0.000000   0.000000
                                        }
                                    }
                                }
                            }
                            JOINT RightFinger4
                            {
                                OFFSET  -7.435090   0.000000  -3.252850
                                CHANNELS 3 Zrotation Xrotation Yrotation
                                JOINT RightFinger41
                                {
                                    OFFSET  -3.717550   0.000000   0.000000
                                    CHANNELS 3 Zrotation Xrotation Yrotation
                                    JOINT RightFinger42
                                    {
                                        OFFSET  -1.858760   0.000000   0.000000
                                        CHANNELS 3 Zrotation Xrotation Yrotation
                                        End Site
                                        {
                                            OFFSET  -1.818440   0.000000   0.000000
                                        }
                                    }
                                }
                            }
                        }
                    }
                }
            }
        }
    }
    JOINT LeftHip
    {
        OFFSET   9.783010   0.000000   0.000000
        CHANNELS 3 Zrotation Xrotation Yrotation
        JOINT LeftKnee
        {
            OFFSET   0.000073 -41.789100   0.001749
            CHANNELS 3 Zrotation Xrotation Yrotation
            JOINT LeftAnkle
            {
                OFFSET   0.000111 -41.133200  -0.000179
                CHANNELS 3 Zrotation Xrotation Yrotation
                JOINT LeftToe
                {
                    OFFSET   0.000000  -6.358960  14.674500
                    CHANNELS 3 Zrotation Xrotation Yrotation
                    End Site
                    {
                        OFFSET   0.000000   0.000000   3.913200
                    }
                }
            }
        }
    }
    JOINT RightHip
    {
        OFFSET  -9.783010   0.000000   0.000000
        CHANNELS 3 Zrotation Xrotation Yrotation
        JOINT RightKnee
        {
            OFFSET   0.000424 -41.789200   0.005205
            CHANNELS 3 Zrotation Xrotation Yrotation
            JOINT RightAnkle
            {
                OFFSET   0.000000 -41.133200  -0.000155
                CHANNELS 3 Zrotation Xrotation Yrotation
                JOINT RightToe
                {
                    OFFSET   0.000000  -6.358960  14.674500
                    CHANNELS 3 Zrotation Xrotation Yrotation
                    End Site
                    {
                        OFFSET   0.000000   0.000000   3.913200
                    }
                }
            }
        }
    }
}
MOTION
Frames: 6
Frame Time:   0.016667
  0.827307  89.479100   1.246770  -4.800320  -9.773020  -5.904260   0.807736   6.009450  -0.744369   1.708630  12.007200  -1.587580   5.322690   0.349360  -0.032573   8.745270   0.689863   6.130320  -3.324350  -0.321054   2.546550 -75.189300  20.078500  -3.494640  -0.425441  -3.408120 -18.946600  12.913200  -5.985550   1.382900  43.509500  36.147200 -61.396500 -29.126800   0.003492   0.003996  -9.563440   0.004540   0.009239 -28.911600   5.058830  -9.071260 -23.983400  -0.002401   0.004947 -16.788400  -0.001216   0.003180 -28.759900   0.820583  -1.494980 -40.824300  -0.000066   0.000972 -27.188900  -0.000356   0.002123 -28.687600   0.818774  -1.495970 -39.021300   0.006498  -0.004575 -25.988200   0.004571  -0.003869 -35.469800   0.128068  -0.179833 -53.205100  -0.001697   0.002910 -35.434600  -0.003627  -0.000896   6.164970   0.484733   9.113370  31.370300 -22.772100  16.750000 -53.198500 -24.388100  52.464900   7.572930  39.278100 -16.789100 -32.738000  33.037600  70.650700  38.014500   0.051862  -0.040404  14.007300   0.028258   0.006301  12.521900   1.530490   5.782180   9.908800  -0.041121   0.025713   6.936140  -0.023901   0.023516  81.667100  -0.158999  -0.127152  81.681500  -0.020182  -0.039477  61.261000  -0.038364   0.002668  85.144400  -4.981490  -0.458048  84.807300  -0.012772  -0.041993  63.605400  -0.035037  -0.003029  86.307400  -9.925850  -0.661890 110.000000   0.004290   0.000000  80.573200   0.043099  -0.011756   2.760040  14.323100   3.858720   0.446980   0.121296   2.327490  -0.107636  -4.799310   2.897560  -0.000000   0.000000  -0.000000   3.507700  11.273700   0.656254  -1.004660   2.718520  -2.639640  -0.566020  -4.591960   0.991591   0.000000   0.000000   0.000000
  0.806909  89.487900   1.261200  -4.780900  -9.763160  -5.858290   0.809668   5.991610  -0.766191   1.715630  11.971100  -1.631930   5.277130   0.366164  -0.032833   8.670710   0.723465   6.201350  -3.332590  -0.312660   2.602430 -75.176000  20.075300  -3.519170  -0.362903  -3.366720 -19.065900  12.927100  -6.072300   1.369640  43.541000  36.154100 -61.416800 -29.081000   0.003489   0.003972  -9.540490   0.004632   0.009225 -28.930600   5.089270  -9.118380 -24.002500  -0.002440   0.004854 -16.801700  -0.001206   0.003149 -28.759700   0.846715  -1.542360 -40.923400  -0.000164   0.001045 -27.254900  -0.000438   0.002048 -28.686400   0.844847  -1.543380 -39.075600   0.006437  -0.004517 -26.024300   0.004544  -0.003814 -35.525900   0.114703  -0.160713 -53.289200  -0.001810   0.002956 -35.490600  -0.003674  -0.000916   6.126090   0.652698   9.169020  31.886800 -23.268000  17.108800 -54.144000 -25.182100  51.823300  21.019600  36.936900 -24.274900 -31.611500  29.880500  67.977400  37.218100   0.047195  -0.035277  13.609100   0.025453   0.004631  19.086100   3.152000   7.860480  15.349600  -0.034895   0.009319  10.751500  -0.020911   0.010797  85.936100  -0.084632  -0.061351  85.950400  -0.008824   0.004365  64.462600   0.002049  -0.001965  88.313400  -5.009050  -0.160915  88.136000  -0.004991   0.000715  66.101800   0.000324  -0.005342  88.663200 -10.004000  -0.236671 110.000000   0.004569   0.000076  80.286600   0.021622  -0.012290   2.759080  14.329000   3.859320   0.445456   0.082782   2.309890  -0.117864  -4.776380   2.871130   0.000000   0.000000   0.000000   3.500500  11.279000   0.656035  -0.991112   2.698050  -2.656710  -0.578303  -4.592380   0.962368   0.000000   0.000000   0.000000
  0.783986  89.494900   1.274390  -4.759800  -9.751180  -5.814020   0.811419   5.969160  -0.793699   1.720540  11.925800  -1.686680   5.235370   0.389299  -0.033080   8.602150   0.769618   6.322340  -3.340040  -0.296347   2.660670 -75.170800  20.056100  -3.525820  -0.299075  -3.314370 -19.187500  12.938200  -6.154930   1.356370  43.580500  36.165100 -61.442600 -29.035100   0.003483   0.003944  -9.517550   0.004720   0.009210 -28.945600   5.119690  -9.165520 -24.018800  -0.002476   0.004761 -16.813100  -0.001195   0.003118 -28.759000   0.872846  -1.589730 -41.013000  -0.000261   0.001120 -27.314600  -0.000521   0.001974 -28.685000   0.870918  -1.590790 -39.123600   0.006375  -0.004459 -26.056300   0.004517  -0.003758 -35.576900   0.102521  -0.143344 -53.365600  -0.001923   0.003006 -35.541500  -0.003722  -0.000937   6.084960   0.832425   9.224570  32.398700 -23.745400  17.449200 -54.591500 -26.172800  51.199400  32.590400  33.892500 -28.932700 -32.921800  28.665900  66.666800  35.678700   0.035385  -0.025172  12.839400   0.018786   0.002778  22.188700   4.619550  10.871300  18.480500  -0.018814   0.006799  12.936400  -0.011646   0.007014  87.788100  -0.010081   0.004449  87.788200   0.002533   0.010628  65.841000   0.007822  -0.006745  89.564100  -5.012980  -0.035528  89.556700   0.002789   0.006828  67.167400   0.005376  -0.007654  89.409800 -10.015100  -0.099771 110.000000   0.004843   0.000206  80.000000   0.000000  -0.012459   2.757790  14.334800   3.860960   0.444507   0.029288   2.292990  -0.128384  -4.742970   2.845160   0.000000   0.000000   0.000000   3.493060  11.280800   0.655971  -0.980454   2.681410  -2.673510  -0.590435  -4.593280   0.933669   0.000000   0.000000   0.000000
  0.761310  89.498600   1.281570  -4.738220  -9.736330  -5.774450   0.808359   5.941290  -0.820824   1.715550  11.869600  -1.740510   5.209440   0.421890  -0.033338   8.559740   0.834309   6.433690  -3.344860  -0.273047   2.663420 -75.177700  19.964200  -3.505840  -0.233195  -3.234460 -19.310500  12.957600  -6.237090   1.376510  43.580600  36.185000 -61.426900 -29.059000   0.003463   0.003913  -9.529510   0.004808   0.009198 -28.969000   5.103220  -9.129950 -24.035500  -0.002500   0.004674 -16.824800  -0.001188   0.003082 -28.760300   0.855323  -1.557740 -41.085000  -0.000356   0.001197 -27.362600  -0.000600   0.001900 -28.686100   0.853437  -1.558780 -39.165000   0.006311  -0.004404 -26.083900   0.004493  -0.003698 -35.614900   0.093415  -0.130426 -53.422600  -0.002038   0.003068 -35.579400  -0.003771  -0.000963   6.061640   1.018920   9.245730  32.928600 -24.262300  17.733600 -54.614100 -26.801100  50.524600  39.401000  31.109100 -29.639400 -35.342600  29.433500  66.178100  33.777200   0.011481  -0.010386  11.888600   0.006142   0.002594  21.846900   5.170000  12.521300  18.367200   0.014385   0.006487  12.857000   0.010467  -0.000127  87.701000  -0.009901  -0.001225  87.701200  -0.002117   0.003841  65.775800   0.001861  -0.006900  89.278100  -5.006100  -0.061602  89.467300  -0.002540   0.006853  67.100400   0.001608  -0.007633  89.197200 -10.006800  -0.137911 110.000000   0.005109   0.000321  80.000000  -0.000146  -0.012777   2.756830  14.326600   3.865300   0.446222   0.007890   2.278030  -0.140978  -4.724180   2.818850   0.000000   0.000000   0.000000   3.487480  11.274300   0.656043  -0.975245   2.673390  -2.687200  -0.602986  -4.596590   0.908199   0.000000   0.000000   0.000000
  0.740179  89.499700   1.285840  -4.718850  -9.722340  -5.742590   0.805729   5.924070  -0.844105   1.713490  11.834900  -1.786820   5.188830   0.451283  -0.033587   8.525940   0.892615   6.530180  -3.350850  -0.257667   2.663810 -75.183300  19.849100  -3.485370  -0.190904  -3.161500 -19.419200  12.971400  -6.282140   1.408060  43.575900  36.211900 -61.404500 -29.104200   0.003440   0.003880  -9.552110   0.004897   0.009187 -28.996100   5.073270  -9.065480 -24.053400  -0.002523   0.004586 -16.837400  -0.001177   0.003044 -28.762100   0.823027  -1.498820 -41.142000  -0.000454   0.001274 -27.400600  -0.000681   0.001825 -28.687900   0.821221  -1.499810 -39.201700   0.006247  -0.004350 -26.108300   0.004467  -0.003640 -35.644900   0.086193  -0.120219 -53.467600  -0.002152   0.003132 -35.609400  -0.003820  -0.000988   6.076020   1.125350   9.249850  33.467300 -24.835500  17.919000 -54.518600 -27.089000  50.138100  43.723000  28.993100 -29.184800 -36.787200  30.670200  65.201600  32.070600  -0.005281  -0.000579  11.035300  -0.002640   0.002534  21.187700   5.261010  13.235400  17.844200   0.037728   0.006382  12.490900   0.026305  -0.004010  87.503300  -0.009836  -0.006900  87.503400  -0.006767  -0.002945  65.627500  -0.004099  -0.006943  88.992000  -4.999190  -0.087841  89.312800  -0.007869   0.006856  66.984500  -0.002405  -0.007585  88.984600  -9.998460  -0.176317 110.000000   0.005369   0.000439  80.000000  -0.000193  -0.013070   2.755750  14.310000   3.872280   0.449673   0.001471   2.263840  -0.152976  -4.715860   2.797020  -0.000000   0.000000   0.000000   3.483390  11.265200   0.656220  -0.971980   2.671270  -2.697590  -0.615316  -4.601970   0.887926   0.000000   0.000000  -0.000000
  0.722819  89.499600   1.288570  -4.705040  -9.712160  -5.722020   0.808171   5.925550  -0.854187   1.719950  11.837700  -1.807390   5.170330   0.463227  -0.033810   8.495730   0.916525   6.572210  -3.362030  -0.273913   2.601890 -75.169400  19.774600  -3.485530  -0.189542  -3.130270 -19.504500  12.971200  -6.280500   1.430260  43.567100  36.239400 -61.426200 -29.156000   0.003422   0.003847  -9.577960   0.004988   0.009176 -29.033500   5.043650  -9.000290 -24.080600  -0.002555   0.004492 -16.856500  -0.001157   0.003008 -28.763700   0.789300  -1.437320 -41.188500  -0.000560   0.001352 -27.431600  -0.000766   0.001747 -28.689700   0.787585  -1.438270 -39.243100   0.006185  -0.004297 -26.135900   0.004434  -0.003586 -35.673600   0.079286  -0.110452 -53.510600  -0.002266   0.003188 -35.638100  -0.003868  -0.001007   6.149200   1.124640   9.213880  34.039100 -25.716200  17.808300 -53.970200 -26.707400  50.494700  44.885400  28.573600 -27.943700 -38.373000  31.884900  63.886300  31.408200  -0.005234  -0.000753  10.704100  -0.002573   0.002413  19.450400   4.534540  12.491300  16.318900   0.017632   0.006168  11.423200   0.012567  -0.004205  87.207300  -0.009691  -0.003632  87.207300  -0.003568  -0.002915  65.405500  -0.004086  -0.007008  89.012500  -4.999160  -0.088007  89.165500  -0.007829   0.006834  66.874100  -0.002648  -0.007519  88.984500  -9.998540  -0.176583 110.000000   0.005622   0.000552  80.000000  -0.000277  -0.013337   2.753980  14.287000   3.883540   0.456477   0.020842   2.248480  -0.162058  -4.723340   2.784750  -0.000000   0.000000   0.000000   3.481840  11.261600   0.656488  -0.968740   2.671260  -2.703290  -0.627120  -4.609370   0.875863   0.000000   0.000000  -0.000000
